<?xml version="1.0" encoding="UTF-8" standalone="no"?>
<svg width="16px" height="12px" viewBox="0 0 16 12" version="1.1" xmlns="http://www.w3.org/2000/svg" xmlns:xlink="http://www.w3.org/1999/xlink" xmlns:sketch="http://www.bohemiancoding.com/sketch/ns">
    <!-- Generator: Sketch 3.0.4 (8053) - http://www.bohemiancoding.com/sketch -->
    <title>Fill 256</title>
    <desc>Created with Sketch.</desc>
    <defs></defs>
    <g id="Page-1" stroke="none" stroke-width="1" fill="none" fill-rule="evenodd" sketch:type="MSPage">
        <path d="M12.5,5 C12.145,5 11.809,5.068 11.486,5.168 L10.893,4.074 L12.32,1 L12.455,0.711 C12.527,0.557 12.516,0.375 12.424,0.231 C12.332,0.088 12.172,0 12.002,0 L9.5,0 C9.224,0 9,0.225 9,0.5 C9,0.777 9.224,1 9.5,1 L11.217,1 L10.287,3 L5.002,3 C4.785,3 4.594,3.139 4.527,3.344 L3.969,5.047 C3.814,5.027 3.66,5 3.5,5 C1.567,5 0,6.566 0,8.5 C0,10.434 1.567,12 3.5,12 C5.433,12 7,10.434 7,8.5 C7,7.078 6.148,5.861 4.932,5.313 L5.145,4.662 C5.273,4.268 5.641,4 6.057,4 L9.691,4 L9.762,4.131 L10.359,5.221 L10.561,5.588 C9.621,6.217 9,7.285 9,8.5 C9,10.434 10.567,12 12.5,12 C14.433,12 16,10.434 16,8.5 C16,6.566 14.433,5 12.5,5 L12.5,5 Z M6,8.5 C6,9.879 4.879,11 3.5,11 C2.121,11 1,9.879 1,8.5 C1,7.121 2.121,6 3.5,6 L3.65,6.016 L3.154,7.527 C3.069,7.789 3.211,8.07 3.472,8.158 C3.598,8.199 3.735,8.19 3.855,8.131 C3.973,8.07 4.063,7.965 4.105,7.84 L4.616,6.275 C5.434,6.687 6,7.525 6,8.5 L6,8.5 Z M12.5,11 C11.121,11 10,9.879 10,8.5 C10,7.666 10.416,6.93 11.047,6.475 L12.321,8.803 C12.451,9.037 12.742,9.129 12.982,9.01 L12.984,9.008 C13.106,8.947 13.197,8.84 13.238,8.711 C13.279,8.582 13.266,8.441 13.201,8.322 L11.971,6.059 C12.142,6.021 12.318,6 12.5,6 C13.879,6 15,7.121 15,8.5 C15,9.879 13.879,11 12.5,11 L12.5,11 Z" id="Fill-256" fill="#1D1D1B" sketch:type="MSShapeGroup"></path>
    </g>
</svg>