<?xml version="1.0" encoding="UTF-8" standalone="no"?>
<svg width="14px" height="12px" viewBox="0 0 14 12" version="1.1" xmlns="http://www.w3.org/2000/svg" xmlns:xlink="http://www.w3.org/1999/xlink" xmlns:sketch="http://www.bohemiancoding.com/sketch/ns">
    <!-- Generator: Sketch 3.0.4 (8053) - http://www.bohemiancoding.com/sketch -->
    <title>Fill 244</title>
    <desc>Created with Sketch.</desc>
    <defs></defs>
    <g id="Page-1" stroke="none" stroke-width="1" fill="none" fill-rule="evenodd" sketch:type="MSPage">
        <path d="M13.5,5 L12.666,5 L12.334,4 L13.5,4 C13.776,4 14,3.777 14,3.5 C14,3.225 13.776,3 13.5,3 L12,3 L11.316,0.949 C11.143,0.428 10.55,0 10,0 L4,0 C3.45,0 2.857,0.428 2.684,0.949 L2,3 L0.5,3 C0.224,3 0,3.225 0,3.5 C0,3.777 0.224,4 0.5,4 L1.666,4 L1.334,5 L0.5,5 C0.225,5 0,5.225 0,5.5 L0,8.5 C0,8.775 0.225,9 0.5,9 L1,9 L1,11 C1,11.553 1.447,12 2,12 L3,12 C3.553,12 4,11.553 4,11 L4,9 L10,9 L10,11 C10,11.553 10.447,12 11,12 L12,12 C12.553,12 13,11.553 13,11 L13,9 L13.5,9 C13.775,9 14,8.775 14,8.5 L14,5.5 C14,5.225 13.775,5 13.5,5 L13.5,5 Z M3.633,1.266 C3.67,1.152 3.88,1 4,1 L6,1 L6,1.5 C6,1.777 6.224,2 6.5,2 L7.5,2 C7.776,2 8,1.777 8,1.5 L8,1 L10,1 C10.12,1 10.33,1.152 10.367,1.266 L11.612,5 L2.387,5 L3.633,1.266 L3.633,1.266 Z M3,8 C2.447,8 2,7.553 2,7 C2,6.447 2.447,6 3,6 C3.553,6 4,6.447 4,7 C4,7.553 3.553,8 3,8 L3,8 Z M5,7 L9,7 L9,8 L5,8 L5,7 Z M11,8 C10.447,8 10,7.553 10,7 C10,6.447 10.447,6 11,6 C11.553,6 12,6.447 12,7 C12,7.553 11.553,8 11,8 L11,8 Z" id="Fill-244" fill="#1D1D1B" sketch:type="MSShapeGroup"></path>
    </g>
</svg>